<svg xmlns="http://www.w3.org/2000/svg" xmlns:xlink="http://www.w3.org/1999/xlink"><symbol id="caret-left" viewBox="0 0 5.9 9" xml:space="preserve" xmlns="http://www.w3.org/2000/svg"><style>.ast0{fill-rule:evenodd;clip-rule:evenodd}</style><path class="ast0" d="M0 4.5l1.4 1.4L4.5 9l1.4-1.5-3.1-3 3.1-3.1L4.5 0 1.4 3.1z"/></symbol><symbol id="caret-right" viewBox="0 0 5.9 9" xml:space="preserve" xmlns="http://www.w3.org/2000/svg"><style>.bst0{fill-rule:evenodd;clip-rule:evenodd}</style><path class="bst0" d="M5.9 4.5L4.5 3.1 1.4 0 0 1.4l3.1 3.1-3.1 3L1.4 9l3.1-3.1z"/></symbol><symbol viewBox="0 0 7.4 13.4" id="chevron-left"><path class="cst0" d="M6.7 13.4L0 6.7 6.7 0l.7.7-6 6 6 6z"/></symbol><symbol viewBox="0 0 7.4 13.4" id="chevron-right"><path class="dst0" d="M.7 13.4l-.7-.7 6-6-6-6L.7 0l6.7 6.7z"/></symbol><symbol id="cross" viewBox="0 0 12 12" xml:space="preserve" xmlns="http://www.w3.org/2000/svg"><style>.est0{fill-rule:evenodd;clip-rule:evenodd}</style><path class="est0" d="M12 5H7V0H5v5H0v2h5v5h2V7h5z"/></symbol><symbol viewBox="0 0 55 55" id="dribbble" xmlns="http://www.w3.org/2000/svg"><path d="M27.5 0C12.3 0 0 12.3 0 27.5S12.3 55 27.5 55 55 42.7 55 27.5 42.7 0 27.5 0zm22.2 25.5c-2.9-.1-8.4-.1-14.7 1-.6-1.4-1.1-2.7-1.7-3.9.4-.2.7-.3 1.1-.5 4.3-2.2 7.9-5 10.7-8.4 2.6 3.4 4.3 7.5 4.6 11.8zM41.4 10c-2.6 3.3-6.1 6-10.4 8-.5-.9-1-1.8-1.4-2.6-2.4-4.2-4.6-7.5-6.3-9.8 1.4-.3 2.8-.4 4.3-.4 5 0 9.8 1.7 13.8 4.8zm-29.7 1.7c1.9-1.9 4-3.4 6.3-4.4 1.6 2.1 4.3 5.8 7.1 10.8.3.6.6 1.2 1 1.8-2.2.7-4.5 1.2-6.9 1.6-5.6.9-10.6.9-13.4.7 1-3.9 3-7.6 5.9-10.5zM5.2 27.5v-.2c1 .1 2.2.1 3.6.1 3 0 6.9-.2 11.1-.9 3.1-.5 5.9-1.2 8.6-2.1.5 1 .9 2 1.4 3.1-3.4.9-6.6 2.1-9.4 3.6-4.6 2.4-8.3 5.5-11.1 9.3-2.8-3.6-4.2-8.2-4.2-12.9zm7.7 16.9c3.9-5.8 10.3-9.8 18.9-11.9 1.7 4.7 3.2 10.1 4.1 15.7-2.6 1.1-5.4 1.6-8.4 1.6-5.4 0-10.5-1.9-14.6-5.4zm30.4-1.1c-.8.8-1.7 1.6-2.6 2.3-.9-5.1-2.2-9.8-3.7-14.1 5.4-.9 10.2-.8 12.7-.7-.8 4.6-3 9-6.4 12.5z"/></symbol><symbol viewBox="0 0 55 55" id="facebook" xmlns="http://www.w3.org/2000/svg"><path d="M14.2 29.3h6v24.8c0 .5.4.9.9.9h10.2c.5 0 .9-.4.9-.9V29.4h6.9c.5 0 .8-.3.9-.8l1.1-9.1c0-.3-.1-.5-.2-.7-.2-.2-.4-.3-.7-.3h-8v-5.7c0-1.7.9-2.6 2.8-2.6h5.2c.5 0 .9-.4.9-.9V.9c0-.5-.4-.9-.9-.9h-7.5c-1.2 0-5.6.2-9 3.4-3.8 3.5-3.3 7.7-3.1 8.4v6.7h-6.3c-.5 0-.9.4-.9.9v9c0 .5.4.9.8.9z"/></symbol><symbol viewBox="0 0 55 55" id="instagram" xmlns="http://www.w3.org/2000/svg"><path d="M37.8 0H17.2C7.7 0 0 7.7 0 17.2v20.6C0 47.3 7.7 55 17.2 55h20.6C47.3 55 55 47.3 55 37.8V17.2C55 7.7 47.3 0 37.8 0zm12 37.8c0 6.6-5.4 12-12 12H17.2c-6.6 0-12-5.4-12-12V17.2c0-6.6 5.4-12 12-12h20.6c6.6 0 12 5.4 12 12v20.6z"/><path d="M27.5 13.8c-7.6 0-13.8 6.2-13.8 13.8s6.2 13.8 13.8 13.8 13.8-6.2 13.8-13.8-6.2-13.8-13.8-13.8zm0 22.3c-4.7 0-8.6-3.9-8.6-8.6 0-4.7 3.9-8.6 8.6-8.6s8.6 3.9 8.6 8.6c0 4.7-3.9 8.6-8.6 8.6z"/><circle cx="42.3" cy="12.7" r="1.8"/></symbol><symbol id="mail" viewBox="0 0 18 11" xml:space="preserve" xmlns="http://www.w3.org/2000/svg"><style>.ist0{fill:#231f20}</style><path class="ist0" d="M0 0v11h18V0H0zm16.1 1L9 7.3 1.9 1h14.2zM1 10V1.6l8 7.1 8-7.1V10H1z"/></symbol><symbol id="mail-thick" viewBox="0 0 19 12" xml:space="preserve" xmlns="http://www.w3.org/2000/svg"><style>.jst0{fill:#231f20}</style><path class="jst0" d="M0 0v12h19V0H0zm2 3.2l7.5 6.7L17 3.2V10H2V3.2zm7.5 3.9L3.7 2h11.6L9.5 7.1z"/></symbol><symbol viewBox="0 0 195 195" id="medium" xmlns="http://www.w3.org/2000/svg"><g fill-rule="nonzero" fill="none"><path fill="#12100E" d="M0 0h195v195H0z"/><path d="M46.534 65.216a5.074 5.074 0 00-1.651-4.28L32.65 46.2V44h37.98l29.355 64.381L125.795 44H162v2.201l-10.458 10.027a3.057 3.057 0 00-1.162 2.935v73.674a3.057 3.057 0 001.162 2.935l10.213 10.027V148h-51.372v-2.201l10.58-10.272c1.04-1.04 1.04-1.345 1.04-2.934V73.042l-29.417 74.713H88.61L54.362 73.042v50.074a6.908 6.908 0 001.896 5.747l13.76 16.691v2.201H31v-2.2l13.76-16.692a6.663 6.663 0 001.774-5.747v-57.9z" fill="#FFF"/></g></symbol><symbol viewBox="0 0 18 18" id="plyr-captions-off" xmlns="http://www.w3.org/2000/svg"><path d="M1 1c-.6 0-1 .4-1 1v11c0 .6.4 1 1 1h4.6l2.7 2.7c.2.2.4.3.7.3.3 0 .5-.1.7-.3l2.7-2.7H17c.6 0 1-.4 1-1V2c0-.6-.4-1-1-1H1zm4.52 10.15c1.99 0 3.01-1.32 3.28-2.41l-1.29-.39c-.19.66-.78 1.45-1.99 1.45-1.14 0-2.2-.83-2.2-2.34 0-1.61 1.12-2.37 2.18-2.37 1.23 0 1.78.75 1.95 1.43l1.3-.41C8.47 4.96 7.46 3.76 5.5 3.76c-1.9 0-3.61 1.44-3.61 3.7 0 2.26 1.65 3.69 3.63 3.69zm7.57 0c1.99 0 3.01-1.32 3.28-2.41l-1.29-.39c-.19.66-.78 1.45-1.99 1.45-1.14 0-2.2-.83-2.2-2.34 0-1.61 1.12-2.37 2.18-2.37 1.23 0 1.78.75 1.95 1.43l1.3-.41c-.28-1.15-1.29-2.35-3.25-2.35-1.9 0-3.61 1.44-3.61 3.7 0 2.26 1.65 3.69 3.63 3.69z" fill-rule="evenodd" fill-opacity=".5"/></symbol><symbol viewBox="0 0 18 18" id="plyr-captions-on" xmlns="http://www.w3.org/2000/svg"><path d="M1 1c-.6 0-1 .4-1 1v11c0 .6.4 1 1 1h4.6l2.7 2.7c.2.2.4.3.7.3.3 0 .5-.1.7-.3l2.7-2.7H17c.6 0 1-.4 1-1V2c0-.6-.4-1-1-1H1zm4.52 10.15c1.99 0 3.01-1.32 3.28-2.41l-1.29-.39c-.19.66-.78 1.45-1.99 1.45-1.14 0-2.2-.83-2.2-2.34 0-1.61 1.12-2.37 2.18-2.37 1.23 0 1.78.75 1.95 1.43l1.3-.41C8.47 4.96 7.46 3.76 5.5 3.76c-1.9 0-3.61 1.44-3.61 3.7 0 2.26 1.65 3.69 3.63 3.69zm7.57 0c1.99 0 3.01-1.32 3.28-2.41l-1.29-.39c-.19.66-.78 1.45-1.99 1.45-1.14 0-2.2-.83-2.2-2.34 0-1.61 1.12-2.37 2.18-2.37 1.23 0 1.78.75 1.95 1.43l1.3-.41c-.28-1.15-1.29-2.35-3.25-2.35-1.9 0-3.61 1.44-3.61 3.7 0 2.26 1.65 3.69 3.63 3.69z" fill-rule="evenodd"/></symbol><symbol viewBox="0 0 18 18" id="plyr-enter-fullscreen" xmlns="http://www.w3.org/2000/svg"><path d="M10 3h3.6l-4 4L11 8.4l4-4V8h2V1h-7zM7 9.6l-4 4V10H1v7h7v-2H4.4l4-4z"/></symbol><symbol viewBox="0 0 18 18" id="plyr-exit-fullscreen" xmlns="http://www.w3.org/2000/svg"><path d="M1 12h3.6l-4 4L2 17.4l4-4V17h2v-7H1zM16 .6l-4 4V1h-2v7h7V6h-3.6l4-4z"/></symbol><symbol viewBox="0 0 18 18" id="plyr-fast-forward" xmlns="http://www.w3.org/2000/svg"><path d="M7.875 7.171L0 1v16l7.875-6.171V17L18 9 7.875 1z"/></symbol><symbol viewBox="0 0 18 18" id="plyr-muted" xmlns="http://www.w3.org/2000/svg"><path d="M12.4 12.5l2.1-2.1 2.1 2.1 1.4-1.4L15.9 9 18 6.9l-1.4-1.4-2.1 2.1-2.1-2.1L11 6.9 13.1 9 11 11.1zM3.786 6.008H.714C.286 6.008 0 6.31 0 6.76v4.512c0 .452.286.752.714.752h3.072l4.071 3.858c.5.3 1.143 0 1.143-.602V2.752c0-.601-.643-.977-1.143-.601L3.786 6.008z"/></symbol><symbol viewBox="0 0 18 18" id="plyr-pause" xmlns="http://www.w3.org/2000/svg"><path d="M6 1H3c-.6 0-1 .4-1 1v14c0 .6.4 1 1 1h3c.6 0 1-.4 1-1V2c0-.6-.4-1-1-1zM12 1c-.6 0-1 .4-1 1v14c0 .6.4 1 1 1h3c.6 0 1-.4 1-1V2c0-.6-.4-1-1-1h-3z"/></symbol><symbol viewBox="0 0 18 18" id="plyr-play" xmlns="http://www.w3.org/2000/svg"><path d="M15.562 8.1L3.87.225C3.052-.337 2 .225 2 1.125v15.75c0 .9 1.052 1.462 1.87.9L15.563 9.9c.584-.45.584-1.35 0-1.8z"/></symbol><symbol viewBox="0 0 18 18" id="plyr-restart" xmlns="http://www.w3.org/2000/svg"><path d="M9.7 1.2l.7 6.4 2.1-2.1c1.9 1.9 1.9 5.1 0 7-.9 1-2.2 1.5-3.5 1.5-1.3 0-2.6-.5-3.5-1.5-1.9-1.9-1.9-5.1 0-7 .6-.6 1.4-1.1 2.3-1.3l-.6-1.9C6 2.6 4.9 3.2 4 4.1 1.3 6.8 1.3 11.2 4 14c1.3 1.3 3.1 2 4.9 2 1.9 0 3.6-.7 4.9-2 2.7-2.7 2.7-7.1 0-9.9L16 1.9l-6.3-.7z"/></symbol><symbol viewBox="0 0 18 18" id="plyr-rewind" xmlns="http://www.w3.org/2000/svg"><path d="M10.125 1L0 9l10.125 8v-6.171L18 17V1l-7.875 6.171z"/></symbol><symbol viewBox="0 0 18 18" id="plyr-volume" xmlns="http://www.w3.org/2000/svg"><path d="M15.6 3.3c-.4-.4-1-.4-1.4 0-.4.4-.4 1 0 1.4C15.4 5.9 16 7.4 16 9c0 1.6-.6 3.1-1.8 4.3-.4.4-.4 1 0 1.4.2.2.5.3.7.3.3 0 .5-.1.7-.3C17.1 13.2 18 11.2 18 9s-.9-4.2-2.4-5.7z"/><path d="M11.282 5.282a.909.909 0 000 1.316c.735.735.995 1.458.995 2.402 0 .936-.425 1.917-.995 2.487a.909.909 0 000 1.316c.145.145.636.262 1.018.156a.725.725 0 00.298-.156C13.773 11.733 14.13 10.16 14.13 9c0-.17-.002-.34-.011-.51-.053-.992-.319-2.005-1.522-3.208a.909.909 0 00-1.316 0zM3.786 6.008H.714C.286 6.008 0 6.31 0 6.76v4.512c0 .452.286.752.714.752h3.072l4.071 3.858c.5.3 1.143 0 1.143-.602V2.752c0-.601-.643-.977-1.143-.601L3.786 6.008z"/></symbol><symbol id="replay" viewBox="0 0 15.6 12.9" xml:space="preserve" xmlns="http://www.w3.org/2000/svg"><style>.wst0{fill:#121318}</style><path class="wst0" d="M15.5 5.1C15.1 3.5 14.1 2 12.6 1 11.1.1 9.4-.3 7.7.1 6 .5 4.6 1.5 3.6 3c-.8 1.2-1.1 2.6-1 4L.8 4.3l-.8.5 2.7 3.9 3.7-2.5-.6-.8-2.2 1.5c-.1-1.2.2-2.4.9-3.4.8-1.2 2-2.1 3.5-2.4 1.4-.3 2.9 0 4.1.8 1.2.8 2.1 2 2.4 3.5.3 1.4 0 2.9-.8 4.1s-2 2.1-3.5 2.4l.2 1c1.7-.4 3.2-1.4 4.1-2.8 1-1.5 1.3-3.3 1-5z"/></symbol><symbol id="twitter" viewBox="0 0 55 55" xml:space="preserve" xmlns="http://www.w3.org/2000/svg"><style>.xst0{fill:#010002}</style><path class="xst0" d="M55 10.3c-2 .9-4.2 1.5-6.5 1.8 2.3-1.4 4.1-3.6 5-6.3-2.2 1.3-4.6 2.2-7.2 2.7C44.2 6.4 41.3 5 38 5c-6.3 0-11.3 5.1-11.3 11.3 0 .9.1 1.8.3 2.6-9.4-.5-17.7-5-23.3-11.8-1 1.7-1.5 3.6-1.5 5.7 0 3.9 2 7.4 5 9.4-1.9-.1-3.6-.6-5.1-1.4v.1C2 26.4 5.9 31 11.1 32c-.9.3-1.9.4-3 .4-.7 0-1.4-.1-2.1-.2 1.4 4.5 5.6 7.8 10.6 7.9-3.9 3-8.8 4.8-14.1 4.8-.9 0-1.8-.1-2.7-.2 5 3.2 11 5.1 17.4 5.1 20.8 0 32.2-17.2 32.2-32.2v-1.5c2.2-1.5 4.1-3.5 5.6-5.8z"/></symbol></svg>